<?xml version="1.0" standalone="no"?>
<!DOCTYPE svg PUBLIC "-//W3C//DTD SVG 20010904//EN"
 "http://www.w3.org/TR/2001/REC-SVG-20010904/DTD/svg10.dtd">
<svg version="1.0" xmlns="http://www.w3.org/2000/svg"
 width="964.000000pt" height="964.000000pt" viewBox="0 0 964.000000 964.000000"
 preserveAspectRatio="xMidYMid meet">

<g transform="translate(0.000000,964.000000) scale(0.100000,-0.100000)"
fill="#000000" stroke="none">
<path d="M0 4820 l0 -4820 4820 0 4820 0 0 4820 0 4820 -4820 0 -4820 0 0
-4820z m6830 4050 l0 -50 150 0 150 0 0 -50 0 -50 100 0 100 0 0 -50 0 -50 50
0 50 0 0 -50 0 -50 100 0 100 0 0 -50 0 -50 50 0 50 0 0 -50 0 -50 50 0 50 0
0 -50 0 -50 50 0 50 0 0 -50 0 -50 100 0 100 0 0 -50 0 -50 50 0 50 0 0 -50 0
-50 50 0 50 0 0 -50 0 -50 50 0 50 0 0 -50 0 -50 50 0 50 0 0 -50 0 -50 50 0
50 0 0 -50 0 -50 50 0 50 0 0 -50 0 -50 50 0 50 0 0 -50 0 -50 50 0 50 0 0
-150 0 -150 50 0 50 0 0 -150 0 -150 50 0 50 0 0 -300 0 -300 50 0 50 0 0 -50
0 -50 100 0 100 0 0 -100 0 -100 50 0 50 0 0 -300 0 -300 -50 0 -50 0 0 -100
0 -100 -50 0 -50 0 0 -100 0 -100 -50 0 -50 0 0 -50 0 -50 -400 0 -400 0 0 50
0 50 -150 0 -150 0 0 50 0 50 -50 0 -50 0 0 100 0 100 -50 0 -50 0 0 -50 0
-50 -50 0 -50 0 0 -50 0 -50 -50 0 -50 0 0 -50 0 -50 -50 0 -50 0 0 -50 0 -50
-50 0 -50 0 0 -50 0 -50 50 0 50 0 0 -50 0 -50 50 0 50 0 0 -100 0 -100 50 0
50 0 0 -300 0 -300 -50 0 -50 0 0 -100 0 -100 -50 0 -50 0 0 -50 0 -50 -50 0
-50 0 0 -100 0 -100 -250 0 -250 0 0 50 0 50 -50 0 -50 0 0 150 0 150 50 0 50
0 0 50 0 50 50 0 50 0 0 50 0 50 50 0 50 0 0 50 0 50 50 0 50 0 0 100 0 100
-50 0 -50 0 0 50 0 50 -100 0 -100 0 0 -50 0 -50 -50 0 -50 0 0 -50 0 -50 -50
0 -50 0 0 -50 0 -50 -50 0 -50 0 0 -50 0 -50 -50 0 -50 0 0 -50 0 -50 -50 0
-50 0 0 -50 0 -50 -50 0 -50 0 0 -50 0 -50 -50 0 -50 0 0 -50 0 -50 -50 0 -50
0 0 -50 0 -50 -50 0 -50 0 0 -50 0 -50 -50 0 -50 0 0 -50 0 -50 50 0 50 0 0
-100 0 -100 50 0 50 0 0 -200 0 -200 100 0 100 0 0 -100 0 -100 200 0 200 0 0
-50 0 -50 50 0 50 0 0 -50 0 -50 50 0 50 0 0 -300 0 -300 -750 0 -750 0 0 500
0 500 100 0 100 0 0 50 0 50 -50 0 -50 0 0 50 0 50 -50 0 -50 0 0 -50 0 -50
-50 0 -50 0 0 -50 0 -50 -50 0 -50 0 0 -50 0 -50 -50 0 -50 0 0 -50 0 -50 -50
0 -50 0 0 -50 0 -50 -50 0 -50 0 0 -50 0 -50 -50 0 -50 0 0 -50 0 -50 -200 0
-200 0 0 50 0 50 -50 0 -50 0 0 50 0 50 -50 0 -50 0 0 50 0 50 -50 0 -50 0 0
50 0 50 -50 0 -50 0 0 50 0 50 -50 0 -50 0 0 50 0 50 -50 0 -50 0 0 50 0 50
-50 0 -50 0 0 -50 0 -50 -50 0 -50 0 0 -50 0 -50 100 0 100 0 0 -500 0 -500
-750 0 -750 0 0 300 0 300 50 0 50 0 0 50 0 50 50 0 50 0 0 50 0 50 200 0 200
0 0 100 0 100 100 0 100 0 0 200 0 200 50 0 50 0 0 100 0 100 50 0 50 0 0 50
0 50 -50 0 -50 0 0 50 0 50 -50 0 -50 0 0 50 0 50 -50 0 -50 0 0 50 0 50 -50
0 -50 0 0 50 0 50 -50 0 -50 0 0 50 0 50 -50 0 -50 0 0 50 0 50 -50 0 -50 0 0
50 0 50 -50 0 -50 0 0 50 0 50 -50 0 -50 0 0 50 0 50 -50 0 -50 0 0 50 0 50
-50 0 -50 0 0 -50 0 -50 -50 0 -50 0 0 -50 0 -50 -50 0 -50 0 0 -50 0 -50 50
0 50 0 0 -50 0 -50 50 0 50 0 0 -50 0 -50 50 0 50 0 0 -50 0 -50 50 0 50 0 0
-150 0 -150 -50 0 -50 0 0 -50 0 -50 -200 0 -200 0 0 50 0 50 -50 0 -50 0 0
50 0 50 -50 0 -50 0 0 50 0 50 -50 0 -50 0 0 100 0 100 -50 0 -50 0 0 250 0
250 50 0 50 0 0 150 0 150 50 0 50 0 0 50 0 50 50 0 50 0 0 50 0 50 -50 0 -50
0 0 50 0 50 -50 0 -50 0 0 50 0 50 -50 0 -50 0 0 50 0 50 -50 0 -50 0 0 650 0
650 50 0 50 0 0 50 0 50 50 0 50 0 0 50 0 50 50 0 50 0 0 50 0 50 50 0 50 0 0
50 0 50 50 0 50 0 0 50 0 50 50 0 50 0 0 50 0 50 50 0 50 0 0 50 0 50 50 0 50
0 0 50 0 50 50 0 50 0 0 50 0 50 50 0 50 0 0 50 0 50 50 0 50 0 0 50 0 50 50
0 50 0 0 50 0 50 650 0 650 0 0 50 0 50 100 0 100 0 0 50 0 50 100 0 100 0 0
50 0 50 50 0 50 0 0 50 0 50 50 0 50 0 0 50 0 50 50 0 50 0 0 50 0 50 50 0 50
0 0 50 0 50 50 0 50 0 0 50 0 50 50 0 50 0 0 50 0 50 50 0 50 0 0 50 0 50 50
0 50 0 0 50 0 50 50 0 50 0 0 50 0 50 50 0 50 0 0 50 0 50 100 0 100 0 0 50 0
50 600 0 600 0 0 -50z"/>
<path d="M5730 8770 l0 -50 -100 0 -100 0 0 -50 0 -50 -50 0 -50 0 0 -50 0
-50 -50 0 -50 0 0 -50 0 -50 -50 0 -50 0 0 -50 0 -50 -50 0 -50 0 0 -50 0 -50
-50 0 -50 0 0 -50 0 -50 -50 0 -50 0 0 -50 0 -50 -50 0 -50 0 0 -50 0 -50 -50
0 -50 0 0 -50 0 -50 -50 0 -50 0 0 -50 0 -50 -50 0 -50 0 0 -50 0 -50 -100 0
-100 0 0 -50 0 -50 -100 0 -100 0 0 -50 0 -50 -650 0 -650 0 0 -50 0 -50 -50
0 -50 0 0 -50 0 -50 -50 0 -50 0 0 -50 0 -50 -50 0 -50 0 0 -50 0 -50 -50 0
-50 0 0 -50 0 -50 -50 0 -50 0 0 -50 0 -50 -50 0 -50 0 0 -50 0 -50 -50 0 -50
0 0 -50 0 -50 -50 0 -50 0 0 -50 0 -50 -50 0 -50 0 0 -50 0 -50 -50 0 -50 0 0
-50 0 -50 -50 0 -50 0 0 -50 0 -50 -50 0 -50 0 0 -550 0 -550 50 0 50 0 0 -50
0 -50 50 0 50 0 0 -50 0 -50 50 0 50 0 0 -50 0 -50 50 0 50 0 0 -50 0 -50 50
0 50 0 0 -50 0 -50 -50 0 -50 0 0 -50 0 -50 -50 0 -50 0 0 -50 0 -50 -50 0
-50 0 0 -100 0 -100 -50 0 -50 0 0 -200 0 -200 50 0 50 0 0 -100 0 -100 50 0
50 0 0 -50 0 -50 50 0 50 0 0 -100 0 -100 150 0 150 0 0 50 0 50 50 0 50 0 0
50 0 50 -50 0 -50 0 0 50 0 50 -50 0 -50 0 0 100 0 100 -50 0 -50 0 0 50 0 50
-50 0 -50 0 0 100 0 100 50 0 50 0 0 50 0 50 50 0 50 0 0 50 0 50 50 0 50 0 0
50 0 50 50 0 50 0 0 -50 0 -50 50 0 50 0 0 -50 0 -50 50 0 50 0 0 -50 0 -50
50 0 50 0 0 -50 0 -50 50 0 50 0 0 -50 0 -50 50 0 50 0 0 -50 0 -50 50 0 50 0
0 -50 0 -50 50 0 50 0 0 -50 0 -50 50 0 50 0 0 -50 0 -50 50 0 50 0 0 -50 0
-50 50 0 50 0 0 -50 0 -50 50 0 50 0 0 -50 0 -50 50 0 50 0 0 -50 0 -50 -50 0
-50 0 0 -50 0 -50 -50 0 -50 0 0 -100 0 -100 -50 0 -50 0 0 -200 0 -200 -100
0 -100 0 0 -100 0 -100 -200 0 -200 0 0 -50 0 -50 -50 0 -50 0 0 -50 0 -50
-50 0 -50 0 0 -200 0 -200 650 0 650 0 0 400 0 400 -100 0 -100 0 0 150 0 150
50 0 50 0 0 100 0 100 100 0 100 0 0 -50 0 -50 50 0 50 0 0 -50 0 -50 50 0 50
0 0 -50 0 -50 50 0 50 0 0 -50 0 -50 50 0 50 0 0 -50 0 -50 50 0 50 0 0 -50 0
-50 50 0 50 0 0 -50 0 -50 50 0 50 0 0 -50 0 -50 100 0 100 0 0 50 0 50 50 0
50 0 0 50 0 50 50 0 50 0 0 50 0 50 50 0 50 0 0 50 0 50 50 0 50 0 0 50 0 50
50 0 50 0 0 50 0 50 50 0 50 0 0 50 0 50 50 0 50 0 0 50 0 50 100 0 100 0 0
-100 0 -100 50 0 50 0 0 -150 0 -150 -100 0 -100 0 0 -400 0 -400 650 0 650 0
0 200 0 200 -50 0 -50 0 0 50 0 50 -50 0 -50 0 0 50 0 50 -200 0 -200 0 0 100
0 100 -100 0 -100 0 0 200 0 200 -50 0 -50 0 0 100 0 100 -50 0 -50 0 0 50 0
50 -50 0 -50 0 0 50 0 50 50 0 50 0 0 50 0 50 50 0 50 0 0 50 0 50 50 0 50 0
0 50 0 50 50 0 50 0 0 50 0 50 50 0 50 0 0 50 0 50 50 0 50 0 0 50 0 50 50 0
50 0 0 50 0 50 50 0 50 0 0 50 0 50 50 0 50 0 0 50 0 50 50 0 50 0 0 50 0 50
50 0 50 0 0 50 0 50 50 0 50 0 0 50 0 50 50 0 50 0 0 -50 0 -50 100 0 100 0 0
-50 0 -50 50 0 50 0 0 -200 0 -200 -50 0 -50 0 0 -50 0 -50 -50 0 -50 0 0 -50
0 -50 -50 0 -50 0 0 -50 0 -50 -50 0 -50 0 0 -50 0 -50 50 0 50 0 0 -50 0 -50
150 0 150 0 0 100 0 100 50 0 50 0 0 50 0 50 50 0 50 0 0 100 0 100 50 0 50 0
0 200 0 200 -50 0 -50 0 0 100 0 100 -50 0 -50 0 0 50 0 50 -50 0 -50 0 0 50
0 50 -50 0 -50 0 0 50 0 50 50 0 50 0 0 50 0 50 50 0 50 0 0 50 0 50 50 0 50
0 0 50 0 50 50 0 50 0 0 50 0 50 50 0 50 0 0 150 0 150 50 0 50 0 0 100 0 100
50 0 50 0 0 50 0 50 50 0 50 0 0 -150 0 -150 -50 0 -50 0 0 -100 0 -100 50 0
50 0 0 -100 0 -100 50 0 50 0 0 -50 0 -50 150 0 150 0 0 -50 0 -50 300 0 300
0 0 50 0 50 50 0 50 0 0 100 0 100 50 0 50 0 0 100 0 100 50 0 50 0 0 200 0
200 -50 0 -50 0 0 100 0 100 -100 0 -100 0 0 50 0 50 -50 0 -50 0 0 300 0 300
-50 0 -50 0 0 150 0 150 -50 0 -50 0 0 150 0 150 -50 0 -50 0 0 50 0 50 -50 0
-50 0 0 50 0 50 -50 0 -50 0 0 50 0 50 -50 0 -50 0 0 50 0 50 -50 0 -50 0 0
50 0 50 -50 0 -50 0 0 50 0 50 -50 0 -50 0 0 50 0 50 -50 0 -50 0 0 50 0 50
-100 0 -100 0 0 50 0 50 -50 0 -50 0 0 50 0 50 -50 0 -50 0 0 50 0 50 -50 0
-50 0 0 50 0 50 -100 0 -100 0 0 50 0 50 -50 0 -50 0 0 50 0 50 -100 0 -100 0
0 50 0 50 -150 0 -150 0 0 50 0 50 -500 0 -500 0 0 -50z m-600 -1310 l0 -50
150 0 150 0 0 -50 0 -50 100 0 100 0 0 -50 0 -50 250 0 250 0 0 -50 0 -50 150
0 150 0 0 -50 0 -50 200 0 200 0 0 -50 0 -50 150 0 150 0 0 -50 0 -50 100 0
100 0 0 -50 0 -50 50 0 50 0 0 -50 0 -50 50 0 50 0 0 -100 0 -100 100 0 100 0
0 -100 0 -100 50 0 50 0 0 -95 0 -95 -300 0 -300 0 0 50 0 50 -200 0 -200 0 0
50 0 50 -100 0 -100 0 0 50 0 50 -100 0 -100 0 0 50 0 50 -100 0 -100 0 0 50
0 50 -200 0 -200 0 0 50 0 50 -250 0 -250 0 0 50 0 50 -150 0 -150 0 0 50 0
50 -150 0 -150 0 0 50 0 50 -50 0 -50 0 0 50 0 50 -150 0 -150 0 0 50 0 50
-50 0 -50 0 0 100 0 100 50 0 50 0 0 45 0 45 150 0 150 0 0 50 0 50 250 0 250
0 0 -50z m-1200 -1390 l0 -50 50 0 50 0 0 -350 0 -350 -50 0 -50 0 0 -150 0
-150 -450 0 -450 0 0 150 0 150 -50 0 -50 0 0 350 0 350 50 0 50 0 0 50 0 50
450 0 450 0 0 -50z m2500 0 l0 -50 50 0 50 0 0 -350 0 -350 -50 0 -50 0 0
-150 0 -150 -450 0 -450 0 0 150 0 150 -50 0 -50 0 0 350 0 350 50 0 50 0 0
50 0 50 450 0 450 0 0 -50z m2602 -307 l3 -48 98 -3 97 -3 0 -244 0 -245 -50
0 -50 0 0 -100 0 -100 -300 0 -300 0 0 50 0 50 -100 0 -100 0 0 50 0 50 -50 0
-50 0 0 100 0 100 50 0 50 0 0 95 0 95 50 0 50 0 0 50 0 50 100 0 100 0 0 50
0 50 199 0 200 0 3 -47z m-4002 -1603 l0 -50 50 0 50 0 0 -50 0 -50 50 0 50 0
0 100 0 100 100 0 100 0 0 -145 0 -145 -200 0 -200 0 0 50 0 50 -50 0 -50 0 0
50 0 50 -50 0 -50 0 0 45 0 45 100 0 100 0 0 -50z m-1300 -1890 l0 -50 -250 0
-250 0 0 50 0 50 250 0 250 0 0 -50z m2500 0 l0 -50 -250 0 -250 0 0 50 0 50
250 0 250 0 0 -50z"/>
<path d="M3230 5970 l0 -50 -50 0 -50 0 0 -300 0 -300 50 0 50 0 0 -50 0 -50
250 0 250 0 0 50 0 50 50 0 50 0 0 300 0 300 -50 0 -50 0 0 50 0 50 -250 0
-250 0 0 -50z m100 -100 l0 -50 50 0 50 0 0 -50 0 -50 -50 0 -50 0 0 45 0 45
-50 0 -50 0 0 55 0 55 50 0 50 0 0 -50z"/>
<path d="M5730 5970 l0 -50 -50 0 -50 0 0 -300 0 -300 50 0 50 0 0 -50 0 -50
250 0 250 0 0 50 0 50 50 0 50 0 0 300 0 300 -50 0 -50 0 0 50 0 50 -250 0
-250 0 0 -50z m500 -105 l0 -55 -50 0 -50 0 0 -45 0 -45 -50 0 -50 0 0 50 0
50 50 0 50 0 0 43 c0 24 3 47 7 50 3 4 26 7 50 7 l43 0 0 -55z"/>
</g>
</svg>
