<?xml version="1.0" standalone="no"?>
<!DOCTYPE svg PUBLIC "-//W3C//DTD SVG 20010904//EN"
 "http://www.w3.org/TR/2001/REC-SVG-20010904/DTD/svg10.dtd">
<svg version="1.0" xmlns="http://www.w3.org/2000/svg"
 width="957.000000pt" height="957.000000pt" viewBox="0 0 957.000000 957.000000"
 preserveAspectRatio="xMidYMid meet">

<g transform="translate(0.000000,957.000000) scale(0.100000,-0.100000)"
fill="#000000" stroke="none">
<path d="M5760 8620 l0 -50 -100 0 -100 0 0 -50 0 -50 -50 0 -50 0 0 -50 0
-50 -50 0 -50 0 0 -50 0 -50 -50 0 -50 0 0 -50 0 -50 -50 0 -50 0 0 -50 0 -50
-50 0 -50 0 0 -50 0 -50 -50 0 -50 0 0 -50 0 -50 -50 0 -50 0 0 -50 0 -50 -50
0 -50 0 0 -50 0 -50 -50 0 -50 0 0 -50 0 -50 -50 0 -50 0 0 -50 0 -50 -100 0
-100 0 0 -50 0 -50 -100 0 -100 0 0 -50 0 -50 -650 0 -650 0 0 -50 0 -50 -50
0 -50 0 0 -50 0 -50 -50 0 -50 0 0 -50 0 -50 -50 0 -50 0 0 -50 0 -50 -50 0
-50 0 0 -50 0 -50 -50 0 -50 0 0 -50 0 -50 -50 0 -50 0 0 -50 0 -50 -50 0 -50
0 0 -50 0 -50 -50 0 -50 0 0 -50 0 -50 -50 0 -50 0 0 -50 0 -50 -50 0 -50 0 0
-50 0 -50 -50 0 -50 0 0 -50 0 -50 -50 0 -50 0 0 -550 0 -550 50 0 50 0 0 -50
0 -50 50 0 50 0 0 -50 0 -50 50 0 50 0 0 -50 0 -50 50 0 50 0 0 -50 0 -50 50
0 50 0 0 -50 0 -50 -50 0 -50 0 0 -50 0 -50 -50 0 -50 0 0 -50 0 -50 -50 0
-50 0 0 -100 0 -100 -50 0 -50 0 0 -200 0 -200 50 0 50 0 0 -100 0 -100 50 0
50 0 0 -50 0 -50 50 0 50 0 0 -100 0 -100 150 0 150 0 0 50 0 50 50 0 50 0 0
50 0 50 -50 0 -50 0 0 50 0 50 -50 0 -50 0 0 100 0 100 -50 0 -50 0 0 50 0 50
-50 0 -50 0 0 100 0 100 50 0 50 0 0 50 0 50 50 0 50 0 0 50 0 50 50 0 50 0 0
50 0 50 50 0 50 0 0 -50 0 -50 50 0 50 0 0 -50 0 -50 50 0 50 0 0 -50 0 -50
50 0 50 0 0 -50 0 -50 55 0 55 0 0 -50 0 -50 50 0 50 0 0 -50 0 -50 45 0 45 0
0 -50 0 -50 50 0 50 0 0 -50 0 -50 50 0 50 0 0 -50 0 -50 50 0 50 0 0 -50 0
-50 50 0 50 0 0 -50 0 -50 50 0 50 0 0 -50 0 -50 50 0 50 0 0 -50 0 -50 -50 0
-50 0 0 -50 0 -50 -50 0 -50 0 0 -100 0 -100 -50 0 -50 0 0 -200 0 -200 -100
0 -100 0 0 -100 0 -100 -200 0 -200 0 0 -50 0 -50 -50 0 -50 0 0 -50 0 -50
-50 0 -50 0 0 -200 0 -200 650 0 650 0 0 400 0 400 -100 0 -100 0 0 150 0 150
50 0 50 0 0 100 0 100 100 0 100 0 0 -50 0 -50 50 0 50 0 0 -50 0 -50 50 0 50
0 0 -50 0 -50 50 0 50 0 0 -50 0 -50 50 0 50 0 0 -50 0 -50 50 0 50 0 0 -50 0
-50 50 0 50 0 0 -50 0 -50 50 0 50 0 0 -50 0 -50 100 0 100 0 0 50 0 50 50 0
50 0 0 50 0 50 50 0 50 0 0 50 0 50 50 0 50 0 0 50 0 50 50 0 50 0 0 50 0 50
50 0 50 0 0 50 0 50 50 0 50 0 0 50 0 50 50 0 50 0 0 50 0 50 100 0 100 0 0
-100 0 -100 50 0 50 0 0 -150 0 -150 -100 0 -100 0 0 -400 0 -400 650 0 650 0
0 200 0 200 -50 0 -50 0 0 50 0 50 -50 0 -50 0 0 50 0 50 -200 0 -200 0 0 100
0 100 -100 0 -100 0 0 200 0 200 -50 0 -50 0 0 100 0 100 -50 0 -50 0 0 50 0
50 -50 0 -50 0 0 50 0 50 50 0 50 0 0 50 0 50 50 0 50 0 0 50 0 50 50 0 50 0
0 50 0 50 50 0 50 0 0 50 0 50 50 0 50 0 0 50 0 50 50 0 50 0 0 50 0 50 50 0
50 0 0 50 0 50 50 0 50 0 0 50 0 50 50 0 50 0 0 50 0 50 50 0 50 0 0 50 0 50
50 0 50 0 0 50 0 50 50 0 50 0 0 50 0 50 50 0 50 0 0 -50 0 -50 100 0 100 0 0
-50 0 -50 50 0 50 0 0 -200 0 -200 -50 0 -50 0 0 -50 0 -50 -50 0 -50 0 0 -50
0 -50 -50 0 -50 0 0 -50 0 -50 -50 0 -50 0 0 -50 0 -50 50 0 50 0 0 -50 0 -50
150 0 150 0 0 100 0 100 50 0 50 0 0 50 0 50 50 0 50 0 0 100 0 100 50 0 50 0
0 200 0 200 -50 0 -50 0 0 100 0 100 -50 0 -50 0 0 50 0 50 -50 0 -50 0 0 50
0 50 -50 0 -50 0 0 50 0 50 50 0 50 0 0 50 0 50 50 0 50 0 0 50 0 50 50 0 50
0 0 50 0 50 50 0 50 0 0 50 0 50 50 0 50 0 0 150 0 150 50 0 50 0 0 100 0 100
50 0 50 0 0 50 0 50 50 0 50 0 0 -150 0 -150 -50 0 -50 0 0 -100 0 -100 50 0
50 0 0 -100 0 -100 50 0 50 0 0 -50 0 -50 150 0 150 0 0 -50 0 -50 300 0 300
0 0 50 0 50 50 0 50 0 0 100 0 100 50 0 50 0 0 100 0 100 50 0 50 0 0 200 0
200 -50 0 -50 0 0 100 0 100 -100 0 -100 0 0 50 0 50 -50 0 -50 0 0 300 0 300
-50 0 -50 0 0 150 0 150 -50 0 -50 0 0 150 0 150 -50 0 -50 0 0 50 0 50 -50 0
-50 0 0 50 0 50 -50 0 -50 0 0 50 0 50 -50 0 -50 0 0 50 0 50 -50 0 -50 0 0
50 0 50 -50 0 -50 0 0 50 0 50 -50 0 -50 0 0 50 0 50 -50 0 -50 0 0 50 0 50
-100 0 -100 0 0 50 0 50 -50 0 -50 0 0 50 0 50 -50 0 -50 0 0 50 0 50 -50 0
-50 0 0 50 0 50 -100 0 -100 0 0 50 0 50 -50 0 -50 0 0 50 0 50 -100 0 -100 0
0 50 0 50 -150 0 -150 0 0 50 0 50 -500 0 -500 0 0 -50z m-600 -1300 l0 -50
150 0 150 0 0 -50 0 -50 100 0 100 0 0 -50 0 -50 250 0 250 0 0 -50 0 -50 150
0 150 0 0 -50 0 -50 200 0 200 0 0 -50 0 -50 150 0 150 0 0 -50 0 -50 100 0
100 0 0 -50 0 -50 50 0 50 0 0 -50 0 -50 50 0 50 0 0 -100 0 -100 100 0 100 0
0 -100 0 -100 50 0 50 0 0 -100 0 -100 -300 0 -300 0 0 50 0 50 -200 0 -200 0
0 50 0 50 -100 0 -100 0 0 50 0 50 -100 0 -100 0 0 50 0 50 -100 0 -100 0 0
50 0 50 -200 0 -200 0 0 50 0 50 -250 0 -250 0 0 50 0 50 -150 0 -150 0 0 50
0 50 -150 0 -150 0 0 50 0 50 -50 0 -50 0 0 50 0 50 -150 0 -150 0 0 50 0 50
-50 0 -50 0 0 100 0 100 55 0 55 0 0 50 0 50 150 0 150 0 0 50 0 50 245 0 245
0 0 -50z m-1200 -1400 l0 -50 50 0 50 0 0 -350 0 -350 -50 0 -50 0 0 -150 0
-150 -450 0 -450 0 0 150 0 150 -50 0 -50 0 0 350 0 350 50 0 50 0 0 50 0 50
450 0 450 0 0 -50z m2500 0 l0 -50 50 0 50 0 0 -350 0 -350 -50 0 -50 0 0
-150 0 -150 -450 0 -450 0 0 150 0 150 -50 0 -50 0 0 350 0 350 50 0 50 0 0
50 0 50 450 0 450 0 0 -50z m2600 -300 l0 -50 100 0 100 0 0 -250 0 -250 -50
0 -50 0 0 -100 0 -100 -300 0 -300 0 0 50 0 50 -100 0 -100 0 0 50 0 50 -50 0
-50 0 0 100 0 100 55 0 55 0 0 100 0 100 50 0 50 0 0 50 0 50 100 0 100 0 0
50 0 50 195 0 195 0 0 -50z m-4000 -1600 l0 -50 50 0 50 0 0 -50 0 -50 55 0
55 0 0 100 0 100 95 0 95 0 0 -150 0 -150 -195 0 -195 0 0 50 0 50 -50 0 -50
0 0 50 0 50 -50 0 -50 0 0 50 0 50 95 0 95 0 0 -50z m-1300 -1900 l0 -50 -250
0 -250 0 0 50 0 50 250 0 250 0 0 -50z m2500 0 l0 -50 -250 0 -250 0 0 50 0
50 250 0 250 0 0 -50z"/>
<path d="M3260 5820 l0 -50 -50 0 -50 0 0 -300 0 -300 50 0 50 0 0 -50 0 -50
250 0 250 0 0 50 0 50 50 0 50 0 0 300 0 300 -50 0 -50 0 0 50 0 50 -250 0
-250 0 0 -50z m110 -100 l0 -50 45 0 45 0 0 -50 0 -50 -50 0 -50 0 0 50 0 50
-45 0 -45 0 0 50 0 50 50 0 50 0 0 -50z"/>
<path d="M5760 5820 l0 -50 -50 0 -50 0 0 -300 0 -300 50 0 50 0 0 -50 0 -50
250 0 250 0 0 50 0 50 50 0 50 0 0 300 0 300 -50 0 -50 0 0 50 0 50 -250 0
-250 0 0 -50z m500 -100 l0 -50 -45 0 -45 0 0 -50 0 -50 -50 0 -50 0 0 50 0
50 45 0 45 0 0 50 0 50 50 0 50 0 0 -50z"/>
</g>
</svg>
